<?xml version="1.0" standalone="no"?>
<!DOCTYPE svg PUBLIC "-//W3C//DTD SVG 20010904//EN"
 "http://www.w3.org/TR/2001/REC-SVG-20010904/DTD/svg10.dtd">
<svg version="1.0" xmlns="http://www.w3.org/2000/svg"
 width="192.000000pt" height="192.000000pt" viewBox="0 0 192.000000 192.000000"
 preserveAspectRatio="xMidYMid meet">

<g transform="translate(0.000000,192.000000) scale(0.100000,-0.100000)"
fill="#000000" stroke="none">
<path d="M779 1696 c-101 -27 -187 -100 -236 -201 -17 -33 -34 -55 -43 -55
-35 0 -140 -63 -185 -111 -72 -77 -100 -146 -99 -249 1 -100 25 -174 79 -237
32 -38 34 -42 23 -79 -17 -63 -5 -163 29 -236 58 -122 173 -202 309 -215 61
-6 74 -11 121 -49 60 -49 157 -84 232 -84 149 0 293 101 349 245 18 45 23 50
63 60 74 19 122 47 180 105 130 129 143 330 31 479 -24 32 -26 44 -27 130 0
86 -3 103 -31 161 -63 132 -184 212 -325 216 -75 2 -78 3 -135 48 -97 76 -221
103 -335 72z m234 -79 c29 -15 63 -37 75 -49 l21 -23 -194 -120 -194 -120 -3
-202 -3 -202 -70 42 -70 42 -3 203 c-3 221 2 255 48 323 84 127 255 173 393
106z m361 -131 c102 -50 165 -147 174 -268 3 -38 2 -68 -1 -68 -3 0 -82 45
-176 100 -94 56 -178 103 -185 106 -8 3 -99 -47 -204 -110 -105 -64 -193 -116
-197 -116 -3 0 -5 32 -3 72 l3 71 165 104 c232 145 233 145 308 140 39 -3 82
-14 116 -31z m-862 -322 l3 -216 187 -106 c103 -59 187 -109 187 -112 1 -5
-142 -90 -151 -90 -3 0 -88 46 -189 103 -163 92 -188 109 -217 151 -89 132
-77 292 30 399 36 36 115 85 140 87 4 0 9 -97 10 -216z m847 24 c187 -109 231
-145 264 -217 31 -71 29 -180 -4 -252 -33 -69 -87 -124 -153 -155 -91 -42 -86
-54 -86 189 l0 213 -186 108 c-134 79 -182 112 -174 120 15 15 143 94 154 95
5 1 88 -45 185 -101z m-325 -89 l86 -50 0 -94 0 -93 -80 -46 c-43 -25 -82 -46
-86 -46 -3 0 -44 21 -90 48 l-84 47 0 95 0 95 78 47 c42 25 80 47 84 47 3 1
45 -22 92 -50z m274 -162 c11 -8 13 -59 10 -241 -3 -228 -3 -232 -30 -282 -32
-60 -93 -118 -157 -148 -69 -32 -188 -29 -256 6 -27 14 -58 35 -68 46 -22 24
-42 9 198 150 l170 100 3 222 2 221 58 -32 c31 -18 63 -37 70 -42z m-188 -239
l0 -93 -203 -119 -202 -118 -56 5 c-156 14 -274 134 -286 289 -9 119 -13 119
187 7 96 -55 177 -99 180 -99 3 0 88 50 190 110 102 61 186 110 188 110 1 0 2
-42 2 -92z"/>
</g>
</svg>
